<mxfile host="app.diagrams.net" modified="2023-04-26T17:28:56.177Z" agent="Mozilla/5.0 (Windows NT 10.0; Win64; x64) AppleWebKit/537.36 (KHTML, like Gecko) Chrome/112.0.0.0 Safari/537.36 Edg/112.0.1722.58" version="21.2.1" etag="xbPWEWKS8_RL8Q5564G9" type="github">
  <diagram name="Страница 1" id="krgMz-9GMzSCnPiqOY5L">
    <mxGraphModel>
      <root>
        <mxCell id="0" />
        <mxCell id="1" parent="0" />
      </root>
    </mxGraphModel>
  </diagram>
</mxfile>
